<?xml version="1.0" encoding="UTF-8"?>
<svg width="512" height="512" viewBox="0 0 512 512" xmlns="http://www.w3.org/2000/svg">
  <title>Disappointed Green Duck Mascot</title>
  <desc>A minimal duck mascot with a disappointed, fatherly expression.</desc>
  <defs>
    <filter id="softShadow" x="-20%" y="-20%" width="140%" height="140%">
      <feDropShadow dx="0" dy="8" stdDeviation="8" flood-opacity="0.15"/>
    </filter>
  </defs>
  <g filter="url(#softShadow)">
    <!-- Body -->
    <path d="
      M256,96
      C330,96 392,154 392,228
      C392,278 360,324 314,342
      C305,346 300,356 303,365
      C309,384 328,398 356,402
      C322,418 286,416 268,396
      C260,388 252,386 244,396
      C226,418 190,418 156,402
      C184,398 203,384 209,365
      C212,356 207,346 198,342
      C152,324 120,278 120,228
      C120,154 182,96 256,96 Z"
      fill="#58CC02" />
    <!-- Wings -->
    <path d="M190,256 C170,246 160,226 162,208 C164,188 182,172 204,170 C206,196 212,220 224,236 C210,242 198,250 190,256 Z" fill="#4EB802"/>
    <path d="M322,256 C342,246 352,226 350,208 C348,188 330,172 308,170 C306,196 300,220 288,236 C302,242 314,250 322,256 Z" fill="#4EB802"/>
    <!-- Head -->
    <path d="M256,120 C300,120 336,148 336,184 C336,200 324,214 306,220 C292,224 274,220 256,220 C238,220 220,224 206,220 C188,214 176,200 176,184 C176,148 212,120 256,120 Z" fill="#58CC02"/>
    <!-- Eyes -->
    <ellipse cx="220" cy="188" rx="26" ry="20" fill="#FFFFFF"/>
    <ellipse cx="292" cy="188" rx="26" ry="20" fill="#FFFFFF"/>
    <!-- Pupils -->
    <circle cx="228" cy="190" r="8" fill="#1B1B1B"/>
    <circle cx="300" cy="190" r="8" fill="#1B1B1B"/>
    <!-- Disappointed eyebrows -->
    <path d="M200,170 Q220,180 240,170" stroke="#1B1B1B" stroke-width="4" fill="none" stroke-linecap="round"/>
    <path d="M272,170 Q292,180 312,170" stroke="#1B1B1B" stroke-width="4" fill="none" stroke-linecap="round"/>
    <!-- Beak (neutral / slightly downward) -->
    <g id="beak">
      <path d="
        M256,260
        C300,260 336,275 336,285
        C336,300 300,305 256,305
        C212,305 176,300 176,285
        C176,275 212,260 256,260 Z"
        fill="#FF9E00"/>
      <path d="M200,290 C222,285 290,285 312,290"
            stroke="#E27F00" stroke-width="6" fill="none" stroke-linecap="round"/>
    </g>
    <!-- Feet -->
    <path d="M206,408 C214,424 230,432 244,432 C238,440 222,446 206,444 Z" fill="#FF9E00"/>
    <path d="M306,408 C298,424 282,432 268,432 C274,440 290,446 306,444 Z" fill="#FF9E00"/>
  </g>
</svg>
